# xmcd
#
# Track frame offsets:
#	150
#	37663
#	56636
#	96939
#	116310
#	138038
#	184959
#	209436
#	229399
#
# Disc length: 3572 seconds
#
# Revision: 1
# Processed by: cddbd v1.5.2PL0 Copyright (c) Steve Scherf et al.
# Submitted via: audiograbber 1.83.01
#
DISCID=760df209
DTITLE=Battleroar - To Death And Beyond...
DYEAR=2008
DGENRE=Heavy Metal
TTITLE0=The Wrathforge
TTITLE1=Dragonhelm
TTITLE2=Finis Mundi
TTITLE3=Metal from Hellas
TTITLE4=Hyrkanian Blades
TTITLE5=Oceans of Pain
TTITLE6=Born in the 70´s
TTITLE7=Warlord of Mars
TTITLE8=Death Before Disgrace
EXTD=
EXTT0=
EXTT1=
EXTT2=
EXTT3=
EXTT4=
EXTT5=
EXTT6=
EXTT7=
EXTT8=
PLAYORDER=
